<?xml version="1.0" encoding="UTF-8"?>
<svg xmlns="http://www.w3.org/2000/svg" viewBox="0 0 512 512">
  <defs>
    <linearGradient id="g" x1="0" y1="0" x2="1" y2="1">
      <stop offset="0" stop-color="#ffffff"/>
      <stop offset="1" stop-color="#bfbfbf"/>
    </linearGradient>
    <filter id="soft" x="-20%" y="-20%" width="140%" height="140%">
      <feGaussianBlur in="SourceGraphic" stdDeviation="2"/>
    </filter>
    <style>
      .arc { fill: none; stroke: url(#g); stroke-linecap: round; }
      .tail { stroke-width: 10; opacity: .9; }
      .a1 { stroke-width: 32; }
      .a2 { stroke-width: 26; }
      .a3 { stroke-width: 22; }
      .a4 { stroke-width: 18; }
      .a5 { stroke-width: 14; }
    </style>
  </defs>

  <!-- Concentric rounded arcs forming a comet-like mark -->
  <path class="arc a1" d="M312 120q96 64 96 160t-96 160" filter="url(#soft)"/>
  <path class="arc a2" d="M284 148q84 56 84 132t-84 132" filter="url(#soft)"/>
  <path class="arc a3" d="M256 176q72 48 72 104t-72 104" filter="url(#soft)"/>
  <path class="arc a4" d="M228 204q60 40 60 76t-60 76" filter="url(#soft)"/>
  <path class="arc a5" d="M200 232q48 32 48 48t-48 48" filter="url(#soft)"/>

  <!-- Motion tails -->
  <g class="arc tail">
    <path d="M128 328 L56 392"/>
    <path d="M168 312 L92 380"/>
    <path d="M208 292 L124 368"/>
    <path d="M248 268 L156 352"/>
    <path d="M288 244 L188 336"/>
  </g>
</svg>

