<svg width="24" height="24" viewBox="0 0 24 24" fill="none" xmlns="http://www.w3.org/2000/svg">
<path d="M22.282 9.821a5.985 5.985 0 0 0-.516-4.91 6.046 6.046 0 0 0-6.51-2.9A6.065 6.065 0 0 0 4.981 4.18a5.985 5.985 0 0 0-3.998 2.9 6.046 6.046 0 0 0 .743 7.097 5.98 5.98 0 0 0 .51 4.911 6.078 6.078 0 0 0 6.499 2.9 5.952 5.952 0 0 0 3.997 2.9 6.006 6.006 0 0 0 4.664-0.9 6.140 6.140 0 0 0 2.108-2.662 5.998 5.998 0 0 0-.516-4.91z" fill="currentColor"/>
<path d="M9.585 11.6c0.326 0.168 0.326 0.428 0 0.597L6.982 13.6c-0.651 0.337-1.092-0.113-0.755-0.764l1.403-2.704c0.168-0.326 0.428-0.326 0.597 0L9.585 11.6zM14.415 11.6c-0.326 0.168-0.326 0.428 0 0.597L17.018 13.6c0.651 0.337 1.092-0.113 0.755-0.764L16.37 10.132c-0.168-0.326-0.428-0.326-0.597 0L14.415 11.6z" fill="white"/>
</svg>