<svg width="24" height="24" viewBox="0 0 24 24" fill="none" xmlns="http://www.w3.org/2000/svg">
  <path d="M22.2819 9.8211a5.9847 5.9847 0 0 0-.5157-4.9108 6.0462 6.0462 0 0 0-6.5098-2.9A6.0651 6.0651 0 0 0 4.9807 4.1818a5.9847 5.9847 0 0 0-3.9977 2.9 6.0462 6.0462 0 0 0 .7427 7.0966 5.98 5.98 0 0 0 .511 4.9107 6.051 6.051 0 0 0 6.5146 2.9001A5.9847 5.9847 0 0 0 13.2599 24a6.0557 6.0557 0 0 0 4.6756-.9965 6.0462 6.0462 0 0 0 2.3606-8.2987 5.97 5.97 0 0 0 1.9663-4.9037zM9.307 15.0498a1.494 1.494 0 0 1-1.8944-.9652 1.4941 1.4941 0 0 1 .9652-1.8943L12.678 10.3a1.494 1.494 0 0 1 1.8944.9652 1.4941 1.4941 0 0 1-.9652 1.8943L9.307 15.0498z" fill="currentColor"/>
</svg>